<svg xmlns="http://www.w3.org/2000/svg" width="48" height="48" viewBox="0 0 48 48" fill="none">
  <path d="M24 4C18.48 4 14 8.48 14 14C14 19.52 18.48 24 24 24C29.52 24 34 19.52 34 14C34 8.48 29.52 4 24 4ZM24 20C20.68 20 18 17.32 18 14C18 10.68 20.68 8 24 8C27.32 8 30 10.68 30 14C30 17.32 27.32 20 24 20Z" fill="#FD7E14"/>
  <path d="M36 28.66C32.56 27.18 28.46 26 24 26C19.54 26 15.44 27.18 12 28.66V32H36V28.66Z" fill="#FD7E14"/>
  <path d="M40 38H8V42H40V38Z" fill="#FD7E14"/>
  <path d="M8 28.66V36H12V32H36V36H40V28.66C40 25.82 35.52 24 24 24C12.48 24 8 25.82 8 28.66Z" fill="#FD7E14"/>
</svg> 